PathFileType	4	(X/Y/Z)	/Users/itak/Documents/Research/Walk-IL/dataset/trc/00199_00008.trc
DataRate	CameraRate	NumFrames	NumMarkers	Units	OrigDataRate	OrigDataStartFrame	OrigNumFrames
100.000000	100.000000	4	53	mm	100.000000	64	514
Frame#	Time	RPSI			LPSI			L3			STRN			T10			C7			CLAV			RBAK			LBAK			LSHO			LUPA			LAEL			LAOL			LWTS			LWPS			LFRA			LIFD			LHPS			LHTS			RSHO			RUPA			RAEL			RAOL			RWTS			RWPS			RFRA			RIFD			RHTS			RHPS			RBHD			LFHD			RFHD			LBHD			LHIP			RHIP			RASI			LASI			LKNE			LTHI			LANK			LTIP			LTOE			LMT1			LMT5			LHEE			RKNE			RTHI			RANK			RTIP			RTOE			RMT1			RMT5			RHEE			
		X1	Y1	Z1	X2	Y2	Z2	X3	Y3	Z3	X4	Y4	Z4	X5	Y5	Z5	X6	Y6	Z6	X7	Y7	Z7	X8	Y8	Z8	X9	Y9	Z9	X10	Y10	Z10	X11	Y11	Z11	X12	Y12	Z12	X13	Y13	Z13	X14	Y14	Z14	X15	Y15	Z15	X16	Y16	Z16	X17	Y17	Z17	X18	Y18	Z18	X19	Y19	Z19	X20	Y20	Z20	X21	Y21	Z21	X22	Y22	Z22	X23	Y23	Z23	X24	Y24	Z24	X25	Y25	Z25	X26	Y26	Z26	X27	Y27	Z27	X28	Y28	Z28	X29	Y29	Z29	X30	Y30	Z30	X31	Y31	Z31	X32	Y32	Z32	X33	Y33	Z33	X34	Y34	Z34	X35	Y35	Z35	X36	Y36	Z36	X37	Y37	Z37	X38	Y38	Z38	X39	Y39	Z39	X40	Y40	Z40	X41	Y41	Z41	X42	Y42	Z42	X43	Y43	Z43	X44	Y44	Z44	X45	Y45	Z45	X46	Y46	Z46	X47	Y47	Z47	X48	Y48	Z48	X49	Y49	Z49	X50	Y50	Z50	X51	Y51	Z51	X52	Y52	Z52	X53	Y53	Z53	

65	0.64	-1550.815307617188	1049.12646484375	-543.2269287109375	-1537.997314453125	1051.775024414062	-666.99560546875	-1540.788940429688	1089.841918945312	-603.7677001953125	-1269.39892578125	1282.361328125	-586.92529296875	-1563.123168945312	1249.743896484375	-615.4193115234375	-1478.259643554688	1513.777587890625	-623.1296997070312	-1287.5205078125	1397.898315429688	-599.855712890625	-1568.969970703125	1346.208862304688	-519.1351318359375	-1477.466674804688	1488.242797851562	-724.67724609375	-1394.113159179688	1468.775512695312	-795.5101318359375	-1425.134399414062	1335.911987304688	-869.3211059570312	-1418.8076171875	1116.407104492188	-880.7303466796875	-1474.14013671875	1105.498901367188	-812.8618774414062	-1326.328247070312	879.3026123046875	-836.0064086914062	-1403.211303710938	862.9302368164062	-884.2987670898438	-1409.6787109375	1005.439025878906	-891.7406005859375	-1324.009643554688	700.4813842773438	-805.2088623046875	-1384.845825195312	792.4462280273438	-878.4715576171875	-1316.309814453125	800.5580444335938	-854.832275390625	-1435.421997070312	1490.516357421875	-436.9692687988281	-1464.604736328125	1425.572143554688	-369.3000183105469	-1489.348388671875	1136.09326171875	-312.9353942871094	-1488.647094726562	1127.822631835938	-410.9908752441406	-1348.548706054688	909.7467041015625	-322.1810913085938	-1424.41259765625	892.3488159179688	-279.0441589355469	-1466.297241210938	1063.708862304688	-292.2155151367188	-1329.609741210938	720.5409545898438	-343.8030395507812	-1321.935791015625	816.5070190429688	-313.0028076171875	-1395.296997070312	810.4697265625	-278.5105285644531	-1429.054077148438	1668.27880859375	-545.8732299804688	-1243.852783203125	1718.039306640625	-649.3384399414062	-1262.560546875	1712.637939453125	-521.0821533203125	-1416.952880859375	1681.315673828125	-682.3515625	-1431.33837890625	984.3499145507812	-778.8888549804688	-1410.349487304688	1008.180725097656	-403.7474365234375	-1321.227294921875	1032.1865234375	-458.5779418945312	-1307.699951171875	1015.883117675781	-716.9088745117188	-1449.81005859375	488.5002746582031	-710.5588989257812	-1432.4013671875	628.0711059570312	-746.112060546875	-1567.013671875	36.93064117431641	-668.6641235351562	-1506.146118164062	266.795654296875	-702.7837524414062	-1345.244750976562	39.68247985839844	-671.6239624023438	-1389.079833984375	39.89574813842773	-617.4535522460938	-1464.708251953125	32.63531494140625	-721.77783203125	-1607.857299804688	35.91629791259766	-592.3753051757812	-1231.714721679688	529.99072265625	-409.9434204101562	-1301.463256835938	796.0861206054688	-389.6370239257812	-1478.89697265625	97.60751342773438	-410.6257934570312	-1249.480102539062	405.03271484375	-418.1005859375	-1265.3203125	54.34903717041016	-405.681640625	-1308.2060546875	54.80196380615234	-458.7337951660156	-1381.096069335938	66.78511047363281	-358.6737976074219	-1514.695556640625	108.3728103637695	-487.0597839355469	
66	0.65	-1548.615234375	1049.259399414062	-544.1885986328125	-1535.566162109375	1051.78466796875	-667.9271240234375	-1538.468505859375	1089.920776367188	-604.7817993164062	-1266.748046875	1282.079711914062	-587.2113037109375	-1560.423095703125	1249.719604492188	-616.4856567382812	-1475.335327148438	1513.690551757812	-623.9074096679688	-1284.735717773438	1397.630615234375	-600.1161499023438	-1566.423950195312	1346.183837890625	-520.1963500976562	-1474.307861328125	1488.14111328125	-725.4279174804688	-1390.771606445312	1468.603515625	-796.0330810546875	-1421.747924804688	1335.80908203125	-869.9602661132812	-1415.785888671875	1116.4306640625	-881.5692138671875	-1471.214477539062	1105.531372070312	-813.7511596679688	-1324.942749023438	878.5328979492188	-837.732421875	-1401.9111328125	862.96875	-886.1005859375	-1407.306518554688	1005.530944824219	-892.9630126953125	-1324.719360351562	699.2431030273438	-808.2389526367188	-1383.988037109375	792.3106079101562	-880.603759765625	-1315.575805664062	799.7717895507812	-857.0267944335938	-1433.024169921875	1490.345458984375	-437.6156005859375	-1462.558837890625	1425.414306640625	-370.0746154785156	-1488.4638671875	1135.990356445312	-314.1296997070312	-1487.023681640625	1127.777954101562	-412.1427917480469	-1348.097045898438	909.3486938476562	-322.5424499511719	-1424.302856445312	892.0542602539062	-279.9907531738281	-1465.738403320312	1063.517211914062	-293.3031311035156	-1329.336303710938	720.1417846679688	-344.2715454101562	-1321.67431640625	816.1030883789062	-313.2810974121094	-1395.342529296875	810.1064453125	-279.363037109375	-1426.27587890625	1668.300415039062	-546.7587890625	-1240.808227539062	1717.685791015625	-649.9071044921875	-1259.825927734375	1712.593627929688	-521.676513671875	-1413.853759765625	1681.057739257812	-683.2467651367188	-1429.119262695312	983.9799194335938	-779.6832275390625	-1408.258178710938	1008.601318359375	-404.6437683105469	-1319.0546875	1032.187744140625	-459.3825378417969	-1305.394287109375	1015.466918945312	-717.6414794921875	-1449.1875	488.2891540527344	-710.805908203125	-1431.299926757812	627.7999877929688	-746.4427490234375	-1567.054931640625	36.89541625976562	-668.7091674804688	-1506.024291992188	266.8493041992188	-702.9491577148438	-1345.261352539062	39.66824340820312	-671.6190185546875	-1389.03369140625	39.97955703735352	-617.4808349609375	-1464.718872070312	32.53737258911133	-721.8768310546875	-1607.982299804688	36.17415618896484	-592.5278930664062	-1225.005615234375	532.5171508789062	-409.3800964355469	-1298.076904296875	797.819091796875	-389.567138671875	-1466.308715820312	96.95149230957031	-412.3506469726562	-1241.048583984375	407.3530578613281	-417.8287963867188	-1252.171875	56.61890411376953	-405.2219543457031	-1294.67822265625	56.434326171875	-458.6884765625	-1368.578002929688	67.72222137451172	-359.3736572265625	-1501.530517578125	107.0269165039062	-489.0586853027344	
67	0.66	-1546.274047851562	1049.425415039062	-545.090087890625	-1533.020751953125	1051.808471679688	-668.805908203125	-1536.029174804688	1090.025024414062	-605.7479858398438	-1263.963500976562	1281.814575195312	-587.4762573242188	-1557.600463867188	1249.706176757812	-617.5017700195312	-1472.30908203125	1513.622436523438	-624.633544921875	-1281.824829101562	1397.381713867188	-600.3462524414062	-1563.739501953125	1346.164672851562	-521.1968383789062	-1471.035522460938	1488.07080078125	-726.1105346679688	-1387.337524414062	1468.486450195312	-796.5033569335938	-1418.26904296875	1335.772094726562	-870.5631713867188	-1412.67724609375	1116.519409179688	-882.3701782226562	-1468.19775390625	1105.627807617188	-814.5953979492188	-1323.45458984375	877.8494873046875	-839.4374389648438	-1400.487182617188	863.0816650390625	-887.8565063476562	-1404.82666015625	1005.68994140625	-894.1432495117188	-1325.204223632812	698.1256713867188	-811.1942749023438	-1383.014038085938	792.257568359375	-882.6844482421875	-1314.704956054688	799.0906372070312	-859.2156372070312	-1430.481811523438	1490.175659179688	-438.209228515625	-1460.345703125	1425.251953125	-370.7892150878906	-1487.427734375	1135.905029296875	-315.2635192871094	-1485.274658203125	1127.75048828125	-413.2243347167969	-1347.603515625	908.9100952148438	-322.8907165527344	-1424.147583007812	891.7593994140625	-280.8801879882812	-1465.0341796875	1063.337158203125	-294.3292846679688	-1329.180419921875	719.6655883789062	-344.7264709472656	-1321.431884765625	815.6234130859375	-313.5362854003906	-1395.372192382812	809.7142944335938	-280.1611328125	-1423.411254882812	1668.31884765625	-547.5946044921875	-1237.689208984375	1717.369995117188	-650.4345703125	-1257.018310546875	1712.611450195312	-522.239013671875	-1410.680053710938	1680.76513671875	-684.0894775390625	-1426.80517578125	983.5897827148438	-780.4213256835938	-1406.022094726562	1009.059753417969	-405.5016784667969	-1316.702270507812	1032.232177734375	-460.1827392578125	-1302.977416992188	1015.050537109375	-718.3339233398438	-1448.394653320312	488.0578918457031	-710.9715576171875	-1430.044311523438	627.5115966796875	-746.6921997070312	-1567.089477539062	36.86986541748047	-668.7432861328125	-1505.788208007812	266.8954162597656	-703.0532836914062	-1345.269897460938	39.64817810058594	-671.6159057617188	-1388.9873046875	40.04864501953125	-617.5018920898438	-1464.71875	32.45079803466797	-721.961181640625	-1608.086303710938	36.4373779296875	-592.6689453125	-1218.611938476562	534.9481201171875	-408.8756408691406	-1294.6474609375	799.5101928710938	-389.5337219238281	-1452.574584960938	95.42887115478516	-413.7595520019531	-1232.661010742188	409.5404968261719	-417.5070190429688	-1237.780517578125	58.82546615600586	-404.6644287109375	-1279.952514648438	57.87923431396484	-458.4924926757812	-1354.787841796875	68.13736724853516	-359.8701782226562	-1487.295166015625	104.6868209838867	-490.7053833007812	
68	0.67	-1543.808349609375	1049.591430664062	-545.93408203125	-1530.369750976562	1051.82470703125	-669.6284790039062	-1533.476806640625	1090.130493164062	-606.6618041992188	-1261.046142578125	1281.549560546875	-587.717529296875	-1554.653442382812	1249.6923828125	-618.46728515625	-1469.176635742188	1513.561279296875	-625.3125610351562	-1278.788818359375	1397.136352539062	-600.5471801757812	-1560.915283203125	1346.136474609375	-522.1420288085938	-1467.6435546875	1488.019287109375	-726.7305297851562	-1383.807739257812	1468.4111328125	-796.9256591796875	-1414.696655273438	1335.791015625	-871.1409912109375	-1409.49169921875	1116.659790039062	-883.1441040039062	-1465.095947265625	1105.777954101562	-815.4068603515625	-1321.841918945312	877.2523803710938	-841.1058349609375	-1398.919189453125	863.2530517578125	-889.5610961914062	-1402.237182617188	1005.900573730469	-895.2838745117188	-1325.336791992188	697.1654663085938	-813.9837036132812	-1381.91162109375	792.2755737304688	-884.7001953125	-1313.656616210938	798.5176391601562	-861.3607177734375	-1427.795532226562	1489.9921875	-438.7536010742188	-1457.969360351562	1425.082763671875	-371.4510498046875	-1486.234741210938	1135.829467773438	-316.3421020507812	-1483.396728515625	1127.728759765625	-414.2426452636719	-1347.063720703125	908.4214477539062	-323.221435546875	-1423.929077148438	891.4608764648438	-281.7005310058594	-1464.173706054688	1063.16357421875	-295.2963256835938	-1329.142456054688	719.1026611328125	-345.1522521972656	-1321.205932617188	815.0534057617188	-313.7662963867188	-1395.3779296875	809.29345703125	-280.8922119140625	-1420.456298828125	1668.31298828125	-548.3753051757812	-1234.4931640625	1717.082275390625	-650.914306640625	-1254.133422851562	1712.6669921875	-522.7615356445312	-1407.431396484375	1680.432495117188	-684.8748779296875	-1424.392211914062	983.1781005859375	-781.1015014648438	-1403.642944335938	1009.524108886719	-406.3123474121094	-1314.18701171875	1032.296142578125	-460.9747314453125	-1300.454223632812	1014.632873535156	-718.9837036132812	-1447.443481445312	487.8087158203125	-711.0685424804688	-1428.639404296875	627.2064819335938	-746.8674926757812	-1567.114990234375	36.85292434692383	-668.767333984375	-1505.433715820312	266.9293823242188	-703.0997314453125	-1345.270874023438	39.62347793579102	-671.6192626953125	-1388.947265625	40.10118865966797	-617.5211791992188	-1464.711547851562	32.37053298950195	-722.0335693359375	-1608.154907226562	36.68640899658203	-592.786865234375	-1212.49658203125	537.2501220703125	-408.4421997070312	-1291.16845703125	801.1275024414062	-389.5499877929688	-1437.743774414062	93.1295166015625	-414.8054809570312	-1224.3154296875	411.5773010253906	-417.1427612304688	-1222.243041992188	60.98561477661133	-404.007568359375	-1264.125732421875	59.15725708007812	-458.1478881835938	-1339.802856445312	68.07377624511719	-360.1417541503906	-1472.042114257812	101.4648208618164	-491.9667053222656	
